<?xml version="1.0" encoding="utf-8"?>
<!-- Generator: Adobe Illustrator 19.0.0, SVG Export Plug-In . SVG Version: 6.00 Build 0)  -->
<svg version="1.1" id="Layer_1" xmlns="http://www.w3.org/2000/svg" xmlns:xlink="http://www.w3.org/1999/xlink" x="0px" y="0px"
	 viewBox="-207 204 545 153" style="enable-background:new -207 204 545 153;" xml:space="preserve">
<style type="text/css">
	.st0{fill:#E5085D;}
	.st1{fill:#0D0C22;}
	.st2{fill:#FFFFFF;}
	.st3{fill:#30065C;}
</style>
<path class="st0" d="M-207,228.5c0-13.5,11-24.5,24.5-24.5h495.7c13.5,0,24.5,11,24.5,24.5v104c0,13.5-11,24.5-24.5,24.5h-495.7
	c-13.5,0-24.5-11-24.5-24.5V228.5z"/>
<path class="st1" d="M-97.5,254.3L-97.5,254.3l-0.2-0.1C-97.6,254.3-97.6,254.3-97.5,254.3z"/>
<path class="st1" d="M-96.5,261.3L-96.5,261.3L-96.5,261.3z"/>
<path class="st1" d="M-97.5,254.3C-97.5,254.3-97.5,254.3-97.5,254.3C-97.5,254.3-97.5,254.3-97.5,254.3
	C-97.5,254.3-97.5,254.3-97.5,254.3z"/>
<path class="st1" d="M-97.5,254.3L-97.5,254.3L-97.5,254.3L-97.5,254.3z"/>
<path class="st1" d="M-96.6,261.3l0.1-0.1l0,0l0,0C-96.4,261.2-96.5,261.2-96.6,261.3z"/>
<path class="st1" d="M-97.3,254.5l-0.1-0.1l-0.1,0C-97.4,254.4-97.4,254.4-97.3,254.5z"/>
<path class="st1" d="M-125.1,322.4c-0.1,0-0.2,0.1-0.2,0.2l0.1,0C-125.2,322.4-125.2,322.4-125.1,322.4z"/>
<path class="st1" d="M-109,319.2c0-0.1,0-0.1,0,0.3c0,0,0-0.1,0-0.1C-109,319.3-109,319.2-109,319.2z"/>
<path class="st1" d="M-110.6,322.4c-0.1,0-0.2,0.1-0.2,0.2l0.1,0C-110.7,322.4-110.7,322.4-110.6,322.4z"/>
<path class="st1" d="M-136.5,323.1c-0.1-0.1-0.1-0.1-0.2-0.1C-136.7,323-136.6,323.1-136.5,323.1L-136.5,323.1z"/>
<path class="st1" d="M-139.1,320.7c0-0.1,0-0.2-0.1-0.3C-139.1,320.5-139.1,320.6-139.1,320.7L-139.1,320.7z"/>
<path class="st2" d="M-121.9,276.8c-3.5,1.5-7.5,3.2-12.7,3.2c-2.2,0-4.3-0.3-6.4-0.9l3.6,36.7c0.1,1.5,0.8,3,2,4
	c1.1,1,2.6,1.6,4.2,1.6c0,0,5.1,0.3,6.8,0.3c1.8,0,7.3-0.3,7.3-0.3c1.5,0,3-0.6,4.2-1.6c1.1-1,1.8-2.5,2-4l3.8-40.6
	c-1.7-0.6-3.4-1-5.4-1C-116,274.3-118.7,275.4-121.9,276.8z"/>
<path class="st1" d="M-152,261.1L-152,261.1l0.1,0.1C-151.9,261.2-152,261.1-152,261.1z"/>
<path class="st3" d="M-90.7,257.7l-0.5-2.7c-0.5-2.4-1.6-4.7-4.1-5.6c-0.8-0.3-1.7-0.4-2.3-1c-0.6-0.6-0.8-1.5-0.9-2.3
	c-0.3-1.5-0.5-3.1-0.8-4.6c-0.2-1.3-0.4-2.8-1-4c-0.8-1.6-2.4-2.6-4.1-3.2c-0.8-0.3-1.7-0.6-2.6-0.8c-4.1-1.1-8.4-1.5-12.6-1.7
	c-5-0.3-10.1-0.2-15.1,0.3c-3.7,0.3-7.7,0.8-11.2,2c-1.3,0.5-2.6,1-3.6,2c-1.2,1.2-1.6,3.1-0.7,4.7c0.6,1.1,1.7,1.9,2.8,2.4
	c1.5,0.7,3,1.2,4.6,1.5c4.4,1,8.9,1.4,13.4,1.5c5,0.2,9.9,0,14.9-0.5c1.2-0.1,2.4-0.3,3.7-0.5c1.4-0.2,2.4-2.1,1.9-3.4
	c-0.5-1.6-1.9-2.2-3.4-1.9c-0.2,0-0.5,0.1-0.7,0.1l-0.2,0c-0.5,0.1-1,0.1-1.6,0.2c-1.1,0.1-2.2,0.2-3.2,0.3
	c-2.4,0.2-4.8,0.2-7.3,0.3c-2.4,0-4.8-0.1-7.1-0.2c-1.1-0.1-2.2-0.2-3.2-0.3c-0.5-0.1-1-0.1-1.5-0.2l-0.5-0.1l-0.1,0l-0.5-0.1
	c-1-0.1-2-0.3-3-0.5c-0.1,0-0.2-0.1-0.3-0.2c-0.1-0.1-0.1-0.2-0.1-0.3s0-0.2,0.1-0.3s0.2-0.1,0.3-0.2h0c0.8-0.2,1.7-0.3,2.6-0.5
	c0.3,0,0.6-0.1,0.9-0.1h0c0.5,0,1.1-0.1,1.6-0.2c4.6-0.5,9.3-0.6,14-0.5c2.3,0.1,4.5,0.2,6.8,0.4c0.5,0.1,1,0.1,1.4,0.2
	c0.2,0,0.4,0,0.6,0.1l0.4,0.1c1.1,0.2,2.2,0.4,3.3,0.6c1.6,0.3,3.7,0.5,4.4,2.2c0.2,0.6,0.3,1.2,0.5,1.8l0.2,0.7c0,0,0,0,0,0
	c0.4,1.8,0.8,3.5,1.1,5.3c0,0.1,0,0.3,0,0.4c0,0.1-0.1,0.3-0.2,0.4c-0.1,0.1-0.2,0.2-0.3,0.3c-0.1,0.1-0.2,0.1-0.4,0.1h0l-0.2,0
	l-0.2,0c-0.7,0.1-1.4,0.2-2.2,0.3c-1.4,0.2-2.9,0.3-4.3,0.4c-2.8,0.2-5.7,0.4-8.5,0.5c-1.5,0-2.9,0.1-4.4,0.1
	c-5.8,0-11.6-0.3-17.3-1c-0.6-0.1-1.2-0.2-1.9-0.2c0.5,0.1-0.4,0-0.5-0.1c-0.4-0.1-0.8-0.1-1.2-0.2c-1.3-0.2-2.6-0.4-4-0.7
	c-1.6-0.3-3.1-0.1-4.6,0.7c-1.2,0.7-2.2,1.6-2.8,2.9c-0.6,1.3-0.8,2.7-1.1,4.1c-0.3,1.4-0.7,2.9-0.5,4.3c0.4,3.1,2.5,5.6,5.6,6.1
	c2.9,0.5,5.8,1,8.8,1.3c11.5,1.4,23.1,1.6,34.7,0.5c0.9-0.1,1.9-0.2,2.8-0.3c0.3,0,0.6,0,0.9,0.1c0.3,0.1,0.5,0.3,0.7,0.5
	c0.2,0.2,0.4,0.5,0.5,0.7c0.1,0.3,0.1,0.6,0.1,0.9l-0.3,2.8c-0.6,5.7-1.2,11.5-1.8,17.2c-0.6,6-1.2,12.1-1.9,18.1
	c-0.2,1.7-0.4,3.4-0.5,5.1c-0.2,1.7-0.2,3.4-0.5,5c-0.5,2.6-2.3,4.2-4.8,4.8c-2.4,0.5-4.8,0.8-7.2,0.8c-2.7,0-5.3-0.1-8-0.1
	c-2.9,0-6.3-0.2-8.6-2.4c-1.9-1.9-2.2-4.8-2.5-7.3c-0.4-3.3-0.7-6.7-1-10l-1.9-18.6l-1.3-12c0-0.2,0-0.4-0.1-0.6
	c-0.2-1.4-1.2-2.8-2.8-2.8c-1.4,0.1-2.9,1.2-2.8,2.8l0.9,8.9l1.9,18.4c0.5,5.2,1.1,10.5,1.6,15.7c0.1,1,0.2,2,0.3,3
	c0.6,5.5,4.8,8.4,10,9.3c3,0.5,6.1,0.6,9.2,0.6c3.9,0.1,7.9,0.2,11.8-0.5c5.7-1.1,10.1-4.9,10.7-10.8c0.2-1.7,0.4-3.4,0.5-5.2
	c0.6-5.7,1.2-11.4,1.8-17.1l1.9-18.6l0.9-8.5c0-0.4,0.2-0.8,0.5-1.1c0.3-0.3,0.7-0.5,1.1-0.6c1.6-0.3,3.2-0.9,4.4-2.1
	C-90.4,262.9-90,260.3-90.7,257.7z M-152.5,259.5c0,0,0,0.2,0,0.3C-152.5,259.7-152.5,259.6-152.5,259.5z M-152.3,260.8
	c0,0,0.1,0,0.1,0.1C-152.3,260.8-152.3,260.8-152.3,260.8L-152.3,260.8z M-152.2,261C-152.1,261.1-152.1,261.1-152.2,261L-152.2,261
	z M-151.9,261.2L-151.9,261.2C-151.9,261.3-151.8,261.3-151.9,261.2C-151.8,261.3-151.9,261.3-151.9,261.2L-151.9,261.2z
	 M-96.7,260.9c-0.6,0.6-1.5,0.8-2.4,1c-9.9,1.5-19.9,2.2-29.8,1.9c-7.1-0.2-14.2-1-21.2-2c-0.7-0.1-1.4-0.2-1.9-0.7
	c-0.9-1-0.5-2.9-0.2-4.1c0.2-1.1,0.6-2.5,1.9-2.6c2-0.2,4.3,0.6,6.2,0.9c2.4,0.4,4.7,0.6,7.1,0.9c10.1,0.9,20.4,0.8,30.5-0.6
	c1.8-0.2,3.7-0.5,5.5-0.9c1.6-0.3,3.4-0.8,4.4,0.8c0.7,1.1,0.8,2.7,0.7,4C-96.1,259.9-96.3,260.5-96.7,260.9L-96.7,260.9z"/>
<path class="st3" d="M-37,288.2c-0.6,1.1-1.4,2.1-2.4,2.9c-1,0.8-2.2,1.5-3.5,2c-1.3,0.5-2.7,0.9-4.1,1c-1.4,0.2-2.7,0.2-4,0
	c-1.3-0.2-2.4-0.6-3.3-1.3l1-10.5c0.9-0.3,2.1-0.6,3.5-1c1.4-0.3,2.9-0.6,4.3-0.7c1.5-0.1,2.9-0.1,4.2,0c1.3,0.2,2.4,0.6,3.1,1.3
	c0.4,0.4,0.8,0.8,1.1,1.2c0.3,0.4,0.5,0.9,0.5,1.4C-36.2,285.9-36.4,287.1-37,288.2z M-51.6,266c0.7-0.4,1.5-0.8,2.4-1.1
	c0.9-0.3,1.9-0.5,2.9-0.7c1-0.1,2-0.1,2.9,0c0.9,0.1,1.8,0.4,2.5,0.8c0.7,0.4,1.3,1.1,1.6,1.9c0.4,0.8,0.4,1.8,0.3,3.1
	c-0.1,1-0.5,1.8-1.2,2.5c-0.7,0.7-1.5,1.3-2.4,1.7c-0.9,0.5-1.9,0.8-3,1.1c-1.1,0.3-2.1,0.5-3,0.6c-1,0.1-1.8,0.2-2.5,0.2
	c-0.7,0-1.2,0-1.4,0L-51.6,266z M-31.8,281.5c-0.5-1.1-1.2-2.1-2.1-2.9c-0.9-0.8-1.9-1.5-3.1-1.8c0.5-0.4,1-1.1,1.5-2
	c0.5-0.9,0.9-1.9,1.3-2.9c0.4-1.1,0.6-2.1,0.7-3.2c0.1-1.1,0.1-2-0.1-2.7c-0.5-1.9-1.4-3.4-2.6-4.5c-1.2-1.1-2.5-1.8-4.1-2.2
	c-1.6-0.4-3.3-0.5-5.1-0.3c-1.9,0.2-3.8,0.7-5.7,1.4c0-0.2,0-0.3,0-0.5c0-0.2,0-0.4,0-0.5c0-0.5-0.2-0.9-0.7-1.2
	c-0.5-0.4-1-0.6-1.7-0.6c-0.6-0.1-1.2,0.1-1.8,0.4c-0.6,0.3-1,0.9-1.2,1.8c-0.3,2.9-0.5,5.8-0.8,8.9c-0.3,3.1-0.5,6.2-0.8,9.4
	c-0.3,3.2-0.6,6.3-0.9,9.4c-0.3,3.1-0.6,6.1-0.9,9c0.1,0.9,0.3,1.5,0.7,2c0.4,0.5,0.8,0.8,1.3,0.9c0.5,0.1,1,0,1.6-0.3
	c0.6-0.3,1-0.7,1.5-1.4c1.3,0.7,2.7,1.2,4.3,1.4c1.6,0.2,3.2,0.2,4.9,0c1.6-0.2,3.3-0.6,4.9-1.2c1.6-0.6,3.1-1.3,4.4-2.1
	c1.3-0.9,2.4-1.8,3.3-2.9c0.9-1.1,1.5-2.3,1.8-3.6c0.3-1.3,0.4-2.6,0.2-3.9C-31,283.8-31.3,282.6-31.8,281.5z"/>
<path class="st3" d="M15,306.7c-0.2,1.1-0.4,2.2-0.7,3.3c-0.3,1.2-0.7,2.2-1.1,3.2c-0.4,1-0.9,1.7-1.4,2.3c-0.5,0.6-1.1,0.8-1.7,0.7
	c-0.5-0.1-0.8-0.4-0.9-0.9c-0.1-0.5-0.1-1.2,0-2c0.1-0.8,0.4-1.7,0.7-2.7c0.4-1,0.8-2,1.3-3c0.5-1,1.1-1.9,1.8-2.8
	c0.7-0.9,1.4-1.7,2.1-2.3c0.2,0.2,0.2,0.7,0.2,1.4C15.3,304.7,15.2,305.7,15,306.7z M31.2,286c-0.4-0.5-1-0.7-1.6-0.8
	c-0.6-0.1-1.3,0.3-1.9,1.1c-0.4,0.8-0.9,1.5-1.6,2.2c-0.6,0.7-1.3,1.3-2,1.9c-0.7,0.6-1.3,1.1-2,1.5c-0.6,0.4-1.1,0.7-1.5,0.9
	c-0.1-1-0.2-2.1-0.2-3.3c0-1.2,0-2.4,0.1-3.6c0.1-1.7,0.3-3.5,0.6-5.2c0.3-1.8,0.7-3.5,1.3-5.2c0-0.9-0.2-1.6-0.6-2.2
	c-0.4-0.6-0.9-0.9-1.5-1.1c-0.6-0.1-1.2-0.1-1.8,0.2c-0.6,0.3-1.2,0.9-1.6,1.6c-0.4,1.1-0.8,2.2-1.3,3.5c-0.5,1.3-1.1,2.6-1.7,4
	c-0.6,1.4-1.3,2.7-2.1,3.9c-0.8,1.3-1.6,2.4-2.5,3.4c-0.9,1-1.9,1.8-3,2.3c-1.1,0.6-2.2,0.8-3.5,0.7c-0.6-0.2-1-0.6-1.2-1.3
	c-0.3-0.7-0.4-1.6-0.5-2.6c0-1.1,0-2.2,0.1-3.5c0.1-1.3,0.3-2.5,0.6-3.7c0.2-1.2,0.5-2.4,0.8-3.5c0.3-1.1,0.6-2.1,0.8-2.8
	c0.4-0.9,0.4-1.7,0-2.3c-0.4-0.6-0.9-1-1.6-1.2c-0.7-0.2-1.4-0.2-2.1,0c-0.7,0.2-1.3,0.7-1.6,1.5c-0.5,1.3-1,2.8-1.5,4.4
	c-0.4,1.6-0.8,3.3-1.1,5c-0.3,1.7-0.4,3.5-0.5,5.2c0,0.1,0,0.2,0,0.3c-0.7,1.9-1.4,3.3-2,4.2c-0.8,1.2-1.7,1.7-2.8,1.6
	c-0.4-0.2-0.7-0.6-0.9-1.3c-0.1-0.7-0.2-1.6-0.1-2.6c0-1,0.2-2.2,0.4-3.5c0.2-1.3,0.4-2.6,0.7-4c0.3-1.4,0.6-2.8,0.9-4.2
	c0.3-1.4,0.6-2.7,0.9-4c0-1.1-0.4-2-1-2.6c-0.6-0.6-1.5-0.8-2.6-0.7c-0.8,0.3-1.3,0.7-1.7,1.2c-0.4,0.5-0.7,1.2-0.9,2
	c-0.1,0.4-0.3,1.2-0.6,2.5c-0.3,1.2-0.6,2.7-1,4.3c-0.4,1.6-0.9,3.3-1.4,5c-0.5,1.8-1.2,3.3-1.8,4.8c-0.7,1.4-1.4,2.6-2.2,3.4
	c-0.8,0.9-1.7,1.2-2.6,1.1c-0.5-0.1-0.8-0.6-1-1.6c-0.1-1-0.2-2.1-0.1-3.5c0.1-1.4,0.3-2.9,0.6-4.6c0.3-1.7,0.6-3.3,0.9-4.8
	c0.3-1.5,0.6-2.8,0.8-4c0.3-1.1,0.4-1.9,0.5-2.3c0-0.9-0.2-1.7-0.6-2.2c-0.4-0.6-0.9-0.9-1.5-1.1c-0.6-0.1-1.2-0.1-1.8,0.2
	c-0.6,0.3-1.2,0.9-1.6,1.6c-0.2,0.9-0.4,1.9-0.6,3c-0.3,1.1-0.5,2.3-0.7,3.5c-0.2,1.2-0.5,2.4-0.7,3.5c-0.2,1.1-0.4,2.1-0.5,3
	c-0.1,0.7-0.1,1.5-0.2,2.5c-0.1,1-0.1,2-0.1,3.1c0,1.1,0.1,2.2,0.2,3.2c0.2,1.1,0.4,2,0.9,2.9c0.4,0.9,1,1.6,1.8,2.2
	c0.8,0.6,1.7,0.9,2.9,1c1.2,0.1,2.2,0,3.1-0.3c0.9-0.2,1.7-0.6,2.4-1.1c0.7-0.5,1.4-1.1,2-1.8c0.6-0.7,1.2-1.5,1.7-2.3
	c0.5,1.2,1.2,2.1,2.1,2.8c0.9,0.7,1.8,1.1,2.7,1.2c1,0.1,1.9,0,2.9-0.4c1-0.4,1.9-1.1,2.7-2c0.5-0.6,1-1.3,1.5-2
	c0.2,0.3,0.4,0.7,0.6,1c0.8,1,1.8,1.7,3.2,2.1c1.4,0.4,2.8,0.4,4.2,0.2c1.4-0.3,2.7-0.7,3.9-1.4c1.2-0.7,2.4-1.5,3.5-2.4
	c1.1-0.9,2-1.9,2.8-2.9c0,0.7,0,1.4,0,2.1c0,0.7,0,1.4,0,2.1c-1.6,1.1-3.1,2.5-4.5,4c-1.4,1.6-2.7,3.2-3.7,5
	c-1.1,1.8-1.9,3.6-2.5,5.4c-0.6,1.8-0.9,3.5-0.9,5.1c0,1.6,0.4,3,1.1,4.1c0.7,1.2,1.9,2,3.6,2.5c1.7,0.5,3.2,0.6,4.6,0
	c1.3-0.5,2.5-1.4,3.4-2.5c1-1.2,1.8-2.6,2.4-4.3c0.6-1.7,1.1-3.4,1.5-5.2c0.4-1.8,0.6-3.6,0.7-5.4c0.1-1.8,0.1-3.3,0-4.7
	c2.7-1.1,5-2.6,6.8-4.3c1.8-1.8,3.2-3.6,4.4-5.5c0.4-0.5,0.5-1.1,0.4-1.7C31.9,287,31.7,286.4,31.2,286z"/>
<path class="st3" d="M91.7,282.9c0.1-0.7,0.2-1.5,0.4-2.3c0.2-0.8,0.4-1.6,0.7-2.4c0.3-0.8,0.6-1.4,1-2c0.4-0.6,0.8-1,1.2-1.2
	c0.4-0.2,0.9-0.2,1.3,0.1c0.5,0.3,0.8,0.9,0.9,1.8c0.1,0.9,0,1.9-0.3,3c-0.3,1.1-0.9,2-1.8,3c-0.9,0.9-2,1.5-3.5,1.8
	C91.6,284.2,91.6,283.6,91.7,282.9z M108.3,284.9c-0.5-0.2-1-0.2-1.5,0c-0.5,0.1-0.8,0.5-0.9,1c-0.3,1-0.7,2.1-1.2,3.1
	c-0.6,1.1-1.2,2.1-2.1,3c-0.8,1-1.7,1.8-2.8,2.5c-1,0.7-2.1,1.3-3.2,1.6c-1.1,0.4-2,0.4-2.8,0.1c-0.7-0.3-1.3-0.7-1.8-1.4
	c-0.4-0.7-0.7-1.4-0.9-2.4c-0.2-0.9-0.3-1.9-0.3-2.9c1.8,0.1,3.4-0.2,4.9-1c1.4-0.8,2.6-1.8,3.6-3.1c1-1.3,1.7-2.7,2.3-4.3
	c0.5-1.6,0.8-3.2,0.9-4.8c0-1.5-0.2-2.8-0.7-3.8c-0.5-1-1.1-1.8-1.9-2.4c-0.8-0.6-1.8-0.9-2.8-1c-1.1-0.1-2.1,0-3.2,0.4
	c-1.3,0.4-2.4,1.2-3.3,2.2c-0.9,1-1.7,2.2-2.3,3.5c-0.6,1.3-1.1,2.7-1.4,4.3c-0.4,1.5-0.6,3-0.8,4.5c-0.1,1.3-0.2,2.6-0.2,3.8
	c-0.1,0.2-0.1,0.3-0.2,0.5c-0.5,1.1-1.1,2.2-1.7,3.3c-0.7,1.1-1.4,2-2.2,2.7c-0.8,0.7-1.6,1-2.5,0.8c-0.5-0.1-0.8-0.7-0.8-1.8
	c0-1.1,0-2.4,0.2-3.9c0.2-1.6,0.3-3.2,0.6-5.1c0.2-1.8,0.3-3.6,0.3-5.2c0-1.4-0.3-2.8-0.8-4.1c-0.5-1.3-1.3-2.4-2.2-3.3
	c-0.9-0.9-2-1.5-3.3-1.7c-1.2-0.3-2.6-0.1-4,0.6c-1.4,0.7-2.6,1.6-3.4,2.8c-0.8,1.2-1.6,2.5-2.3,3.8c-0.3-1-0.6-2-1.1-2.8
	c-0.5-0.9-1.1-1.6-1.8-2.3c-0.7-0.7-1.5-1.2-2.4-1.5C57,270.2,56,270,55,270c-1,0-1.8,0.2-2.7,0.5c-0.8,0.4-1.6,0.8-2.2,1.4
	c-0.7,0.6-1.3,1.2-1.8,1.9c-0.5,0.7-1,1.4-1.4,2.1c-0.1-0.8-0.1-1.6-0.2-2.2c-0.1-0.6-0.2-1.1-0.4-1.6c-0.2-0.4-0.5-0.8-0.9-1
	c-0.4-0.2-0.9-0.3-1.6-0.3c-0.4,0-0.7,0.1-1.1,0.2c-0.4,0.1-0.7,0.3-0.9,0.6c-0.3,0.3-0.5,0.6-0.6,0.9s-0.2,0.8-0.1,1.3
	c0,0.4,0.1,0.8,0.3,1.3c0.1,0.5,0.3,1.1,0.4,1.9c0.1,0.8,0.2,1.8,0.3,2.9c0.1,1.1,0.1,2.5,0.1,4.2c0,1.6-0.2,3.6-0.4,5.8
	c-0.2,2.2-0.5,4.7-1,7.6c-0.1,0.7,0.2,1.2,0.8,1.6c0.6,0.4,1.2,0.7,2,0.7c0.7,0.1,1.4-0.1,2.1-0.4c0.7-0.3,1-0.9,1.1-1.7
	c0.1-1.5,0.3-3.1,0.6-4.8c0.3-1.7,0.6-3.4,1-5c0.4-1.7,0.9-3.2,1.4-4.7c0.5-1.5,1.1-2.8,1.7-4c0.6-1.1,1.3-2.1,1.9-2.7
	c0.7-0.7,1.4-1,2.1-1c0.9,0,1.6,0.4,2.1,1.2c0.5,0.8,0.8,1.9,1.1,3.1c0.2,1.3,0.3,2.7,0.3,4.2c0,1.5-0.1,3-0.2,4.4
	c-0.1,1.4-0.2,2.7-0.4,3.8c-0.1,1.1-0.2,1.9-0.3,2.3c0,0.7,0.3,1.3,0.8,1.7c0.6,0.4,1.2,0.7,1.9,0.8c0.7,0.1,1.3,0,1.9-0.4
	c0.6-0.3,1-0.9,1.1-1.7c0.3-2.3,0.8-4.6,1.3-6.9c0.6-2.3,1.2-4.4,1.9-6.2c0.7-1.8,1.5-3.3,2.4-4.5c0.9-1.2,1.8-1.7,2.8-1.7
	c0.5,0,0.9,0.4,1.2,1.1c0.3,0.7,0.4,1.7,0.4,2.9c0,0.9-0.1,1.8-0.2,2.7c-0.1,0.9-0.3,1.9-0.5,2.9c-0.2,1-0.4,2-0.5,3.1
	c-0.1,1.1-0.2,2.1-0.2,3.3c0,0.8,0.1,1.7,0.2,2.8c0.2,1.1,0.5,2,0.9,3c0.4,0.9,1.1,1.7,1.8,2.4c0.8,0.7,1.8,1,3,1
	c1.8,0,3.4-0.4,4.8-1.2c1.4-0.8,2.6-1.8,3.6-3.1c0.1-0.1,0.1-0.1,0.2-0.2c0.1,0.2,0.1,0.4,0.2,0.6c0.7,1.4,1.6,2.5,2.8,3.2
	c1.2,0.8,2.6,1.2,4.2,1.3c1.6,0.1,3.3-0.2,5.2-0.9c1.4-0.5,2.6-1.1,3.7-1.9c1-0.8,2-1.7,2.8-2.8c0.8-1.1,1.6-2.4,2.3-3.8
	c0.7-1.4,1.4-3.1,2.1-4.9c0.1-0.5,0-1-0.4-1.4C109.3,285.3,108.9,285,108.3,284.9z"/>
<path class="st3" d="M134.4,279.5c-0.2,0.9-0.4,2-0.6,3.1c-0.3,1.1-0.6,2.3-1,3.5c-0.4,1.2-0.9,2.3-1.5,3.3c-0.6,1-1.3,1.7-2.1,2.3
	c-0.8,0.6-1.7,0.8-2.7,0.7c-0.5-0.1-0.9-0.4-1.2-1.1c-0.3-0.6-0.4-1.4-0.4-2.4c0-1,0.1-2.1,0.3-3.2c0.2-1.2,0.5-2.3,0.9-3.5
	c0.4-1.1,0.9-2.2,1.5-3.1c0.6-1,1.2-1.7,2-2.2c0.8-0.5,1.6-0.8,2.5-0.7c0.9,0,1.9,0.5,2.9,1.3C134.7,277.9,134.6,278.6,134.4,279.5z
	 M151.4,283.2c-0.5-0.3-1-0.3-1.5-0.2c-0.5,0.1-0.9,0.6-1.1,1.5c-0.1,0.9-0.4,1.9-0.9,3.2c-0.4,1.2-1,2.4-1.7,3.4
	c-0.7,1.1-1.4,2-2.3,2.7c-0.8,0.7-1.8,1-2.7,1c-0.8-0.1-1.4-0.5-1.7-1.2c-0.3-0.7-0.5-1.7-0.5-2.8c0-1.1,0.1-2.4,0.3-3.8
	c0.2-1.4,0.5-2.8,0.9-4.2c0.3-1.4,0.7-2.7,1-4c0.4-1.3,0.6-2.4,0.9-3.3c0.3-0.8,0.2-1.5-0.2-2c-0.4-0.6-0.9-1-1.6-1.2
	c-0.6-0.2-1.3-0.3-1.9-0.2c-0.6,0.1-1.1,0.5-1.2,1c-1.9-1.6-3.7-2.5-5.4-2.6c-1.7-0.1-3.3,0.3-4.8,1.1c-1.5,0.9-2.8,2.2-3.9,3.9
	c-1.1,1.7-2.1,3.5-2.8,5.5c-0.7,2-1.1,4-1.3,6.1c-0.2,2.1,0,4,0.4,5.7s1.2,3.1,2.4,4.2c1.1,1.1,2.7,1.6,4.6,1.6
	c0.9,0,1.7-0.2,2.5-0.5c0.8-0.4,1.5-0.8,2.2-1.2s1.3-1,1.8-1.5c0.5-0.5,0.9-1,1.2-1.3c0.2,1.1,0.6,2.1,1.1,2.9
	c0.5,0.8,1.1,1.4,1.7,2c0.7,0.5,1.3,0.9,2.1,1.1c0.7,0.2,1.4,0.4,2.1,0.4c1.5,0,2.9-0.5,4.2-1.5c1.3-1,2.5-2.3,3.5-3.7
	c1-1.5,1.9-3,2.6-4.7c0.7-1.6,1.1-3.1,1.3-4.4c0.2-0.5,0.2-1-0.1-1.5C152.3,283.8,151.9,283.5,151.4,283.2z"/>
<path class="st3" d="M237.7,309.6c-0.3,1.1-0.7,2-1.3,2.7c-0.6,0.7-1.3,1.1-2.2,1.2c-0.5,0-1-0.3-1.2-0.9c-0.3-0.6-0.5-1.4-0.6-2.3
	c-0.1-1-0.2-2-0.1-3.2c0-1.2,0.1-2.3,0.1-3.5c0.1-1.1,0.2-2.2,0.3-3.2c0.1-1,0.2-1.8,0.3-2.3c1.1,0.1,2,0.6,2.7,1.4
	c0.7,0.8,1.3,1.8,1.7,2.9c0.4,1.1,0.6,2.3,0.7,3.6C238.1,307.3,238,308.5,237.7,309.6z M220.4,309.6c-0.3,1.1-0.7,2-1.3,2.7
	c-0.6,0.7-1.3,1.1-2.2,1.2c-0.5,0-1-0.3-1.2-0.9c-0.3-0.6-0.5-1.4-0.6-2.3c-0.1-1-0.2-2-0.1-3.2c0-1.2,0.1-2.3,0.1-3.5
	c0.1-1.1,0.2-2.2,0.3-3.2c0.1-1,0.2-1.8,0.3-2.3c1.1,0.1,2,0.6,2.7,1.4c0.7,0.8,1.3,1.8,1.7,2.9c0.4,1.1,0.6,2.3,0.7,3.6
	C220.8,307.3,220.7,308.5,220.4,309.6z M202.6,282.4c0,0.8-0.1,1.4-0.2,2c-0.1,0.6-0.3,1-0.5,1.1c-0.4-0.2-0.8-0.7-1.3-1.5
	c-0.5-0.8-0.9-1.7-1.2-2.7c-0.3-1-0.4-2-0.3-3c0.1-1,0.6-1.7,1.5-2.3c0.4-0.2,0.7-0.1,0.9,0.2c0.3,0.3,0.5,0.8,0.6,1.5
	c0.2,0.6,0.3,1.4,0.3,2.2C202.6,280.9,202.6,281.7,202.6,282.4z M198.3,292c-0.5,0.5-1,1-1.7,1.4c-0.6,0.4-1.2,0.7-1.9,0.9
	c-0.6,0.2-1.2,0.2-1.7,0.1c-1.4-0.3-2.5-0.9-3.3-1.9c-0.8-1-1.3-2.1-1.5-3.4c-0.2-1.3-0.2-2.7,0.1-4.1c0.3-1.5,0.7-2.8,1.3-4.1
	c0.6-1.3,1.3-2.3,2.2-3.2c0.9-0.9,1.8-1.5,2.8-1.7c-0.4,1.6-0.5,3.3-0.4,5c0.1,1.7,0.5,3.4,1.2,4.9c0.4,0.9,1,1.8,1.6,2.5
	c0.6,0.8,1.4,1.4,2.3,2C199.2,290.9,198.8,291.4,198.3,292z M251.4,282.9c0.1-0.7,0.2-1.5,0.4-2.3c0.2-0.8,0.4-1.6,0.7-2.4
	c0.3-0.8,0.6-1.4,1-2c0.4-0.6,0.8-1,1.2-1.2s0.9-0.2,1.3,0.1c0.5,0.3,0.8,0.9,0.9,1.8c0.1,0.9,0,1.9-0.3,3c-0.3,1.1-0.9,2-1.8,3
	c-0.9,0.9-2,1.5-3.5,1.8C251.3,284.2,251.3,283.6,251.4,282.9z M270.7,282.9c0.1-0.7,0.2-1.5,0.4-2.3c0.2-0.8,0.4-1.6,0.7-2.4
	c0.3-0.8,0.6-1.4,1-2c0.4-0.6,0.8-1,1.2-1.2c0.4-0.2,0.9-0.2,1.3,0.1c0.5,0.3,0.8,0.9,0.9,1.8c0.1,0.9,0,1.9-0.3,3
	c-0.3,1.1-0.9,2-1.8,3c-0.9,0.9-2,1.5-3.5,1.8C270.6,284.2,270.6,283.6,270.7,282.9z M288.7,285.7c-0.4-0.4-0.8-0.7-1.3-0.8
	c-0.5-0.2-1-0.2-1.5,0c-0.5,0.1-0.8,0.5-0.9,1c-0.3,1-0.7,2.1-1.2,3.1c-0.6,1.1-1.2,2.1-2.1,3s-1.7,1.8-2.8,2.5
	c-1,0.7-2.1,1.3-3.2,1.6c-1.1,0.4-2,0.4-2.8,0.1c-0.7-0.3-1.3-0.7-1.8-1.4c-0.4-0.7-0.7-1.4-0.9-2.4c-0.2-0.9-0.3-1.9-0.3-2.9
	c1.8,0.1,3.4-0.2,4.9-1c1.4-0.8,2.6-1.8,3.6-3.1c1-1.3,1.7-2.7,2.3-4.3c0.5-1.6,0.8-3.2,0.9-4.8c0-1.5-0.2-2.8-0.7-3.8
	c-0.5-1-1.1-1.8-1.9-2.4c-0.8-0.6-1.8-0.9-2.8-1c-1.1-0.1-2.1,0-3.2,0.4c-1.3,0.4-2.4,1.2-3.3,2.2c-0.9,1-1.7,2.2-2.3,3.5
	c-0.6,1.3-1.1,2.7-1.4,4.3c-0.4,1.5-0.6,3-0.8,4.5c-0.2,1.4-0.2,2.8-0.3,4.1c-0.1,0.3-0.3,0.5-0.4,0.8c-0.6,1.1-1.2,2.1-2.1,3
	c-0.8,1-1.7,1.8-2.8,2.5c-1,0.7-2.1,1.3-3.2,1.6c-1.1,0.4-2,0.4-2.8,0.1c-0.7-0.3-1.3-0.7-1.8-1.4c-0.4-0.7-0.7-1.4-0.9-2.4
	c-0.2-0.9-0.3-1.9-0.3-2.9c1.8,0.1,3.4-0.2,4.9-1c1.4-0.8,2.6-1.8,3.6-3.1c1-1.3,1.7-2.7,2.3-4.3c0.5-1.6,0.8-3.2,0.9-4.8
	c0-1.5-0.2-2.8-0.7-3.8c-0.5-1-1.1-1.8-1.9-2.4c-0.8-0.6-1.7-0.9-2.8-1c-1.1-0.1-2.1,0-3.2,0.4c-1.3,0.4-2.4,1.2-3.3,2.2
	c-0.9,1-1.7,2.2-2.3,3.5c-0.6,1.3-1.1,2.7-1.4,4.3c-0.4,1.5-0.6,3-0.8,4.5c-0.1,0.8-0.2,1.6-0.2,2.4c-0.3,0.3-0.6,0.5-0.9,0.8
	c-1.1,0.9-2.3,1.7-3.5,2.4c-1.2,0.7-2.5,1.3-3.8,1.8c-1.3,0.5-2.7,0.7-4,0.8l3-31.7c0.2-0.7,0.1-1.3-0.3-1.8
	c-0.4-0.5-0.9-0.9-1.5-1.1c-0.6-0.2-1.3-0.2-1.9,0c-0.7,0.2-1.3,0.7-1.7,1.5c-0.2,1.2-0.5,2.9-0.7,5c-0.2,2.1-0.5,4.4-0.7,6.9
	c-0.2,2.5-0.5,5-0.7,7.7c-0.2,2.6-0.4,5.1-0.6,7.4c0,0.1,0,0.2,0,0.3c-0.3,0.2-0.6,0.5-0.8,0.7c-1.1,0.9-2.3,1.7-3.5,2.4
	c-1.2,0.7-2.5,1.3-3.8,1.8c-1.3,0.5-2.7,0.7-4,0.8l3-31.7c0.2-0.7,0.1-1.3-0.3-1.8c-0.4-0.5-0.9-0.9-1.5-1.1c-0.6-0.2-1.3-0.2-1.9,0
	c-0.7,0.2-1.3,0.7-1.7,1.5c-0.2,1.2-0.5,2.9-0.7,5c-0.2,2.1-0.5,4.4-0.7,6.9c-0.2,2.5-0.5,5-0.7,7.7c-0.2,2.6-0.4,5.1-0.6,7.4
	c0,0,0,0.1,0,0.1c-0.5,0.2-1,0.4-1.6,0.6c-0.6,0.2-1.3,0.3-2.1,0.3c0.1-0.6,0.2-1.2,0.3-1.9c0.1-0.7,0.1-1.4,0.2-2.2
	c0-0.8,0.1-1.5,0-2.3c0-0.8-0.1-1.5-0.1-2.1c-0.2-1.4-0.5-2.7-0.9-3.9c-0.4-1.2-1-2.3-1.8-3.1c-0.7-0.8-1.7-1.4-2.8-1.7
	c-1.1-0.3-2.4-0.2-3.9,0.3c-2.2-0.3-4.1-0.1-5.9,0.6c-1.7,0.7-3.3,1.7-4.5,3c-1.3,1.3-2.3,2.8-3.1,4.6c-0.8,1.8-1.4,3.6-1.6,5.4
	c-0.1,0.8-0.2,1.6-0.2,2.4c-0.5,1-1,1.9-1.6,2.6c-0.8,1.1-1.7,1.9-2.6,2.6c-0.9,0.7-1.8,1.2-2.7,1.5c-0.9,0.4-1.7,0.6-2.4,0.7
	c-0.8,0.2-1.6,0.2-2.4,0c-0.8-0.1-1.5-0.5-2.1-1.1c-0.5-0.4-0.9-1.2-1.2-2.1c-0.3-1-0.4-2.1-0.5-3.4c0-1.3,0-2.6,0.1-3.9
	c0.1-1.4,0.4-2.7,0.7-3.9c0.4-1.2,0.8-2.3,1.3-3.3c0.5-1,1.2-1.7,1.9-2.1c0.4,0.1,0.7,0.3,0.8,0.7c0.1,0.4,0.1,0.9,0.1,1.5
	c0,0.6-0.1,1.2-0.2,1.8c-0.1,0.6-0.1,1.1-0.1,1.6c0.2,0.9,0.5,1.5,0.9,2c0.5,0.5,1,0.8,1.6,0.8c0.6,0.1,1.1-0.1,1.7-0.4
	c0.6-0.3,1-0.9,1.4-1.7c0,0,0.1,0,0.1,0l0.7-6.1c0.2-0.8,0.1-1.6-0.4-2.2c-0.4-0.6-1-1-1.8-1.1c-0.9-1.3-2.2-2-3.8-2.1
	c-1.6-0.1-3.2,0.4-4.9,1.6c-1,0.7-1.9,1.7-2.7,3c-0.8,1.3-1.4,2.7-1.9,4.3c-0.5,1.6-0.8,3.2-1.1,5c-0.2,1.8-0.2,3.5-0.1,5.1
	c0.1,1.7,0.4,3.2,0.9,4.7c0.5,1.5,1.1,2.7,1.9,3.7c0.7,0.9,1.5,1.5,2.4,1.9c0.9,0.4,1.8,0.6,2.8,0.7c1,0.1,1.9,0.1,2.9-0.1
	c1-0.2,1.9-0.4,2.7-0.7c1.1-0.4,2.3-0.9,3.5-1.6c1.2-0.6,2.3-1.4,3.4-2.3c0.6-0.5,1.1-1,1.7-1.5c0.2,0.6,0.5,1.2,0.8,1.7
	c0.9,1.4,2,2.6,3.5,3.5c1.5,0.9,3.3,1.3,5.4,1.3c2.3,0,4.4-0.6,6.4-1.7c2-1.1,3.5-2.8,4.8-5c1.9,0,3.7-0.3,5.5-0.9
	c0,0.2,0,0.4,0,0.6c-0.1,1.7-0.2,2.8-0.2,3.4c0,1.1-0.1,2.3-0.2,3.9c-0.1,1.5-0.2,3.2-0.2,4.9c0,1.7,0,3.4,0.2,5.2
	c0.2,1.7,0.5,3.3,1,4.7c0.5,1.4,1.2,2.6,2.2,3.6c0.9,1,2.2,1.6,3.7,1.8c1.6,0.2,3-0.1,4.2-0.9c1.2-0.8,2.1-1.9,2.9-3.3
	c0.7-1.4,1.3-3,1.6-4.8c0.3-1.8,0.4-3.6,0.3-5.5c-0.1-1.8-0.5-3.6-1-5.2c-0.5-1.6-1.3-3-2.3-4c0.6-0.2,1.3-0.5,2.1-0.9
	c0.8-0.4,1.6-0.9,2.5-1.5c0.2-0.1,0.4-0.3,0.6-0.4c-0.1,1.1-0.1,1.9-0.1,2.4c0,1.1-0.1,2.3-0.2,3.9c-0.1,1.5-0.2,3.2-0.2,4.9
	c0,1.7,0,3.4,0.2,5.2c0.2,1.7,0.5,3.3,1,4.7c0.5,1.4,1.2,2.6,2.2,3.6c0.9,1,2.2,1.6,3.7,1.8c1.6,0.2,3-0.1,4.2-0.9
	c1.2-0.8,2.1-1.9,2.9-3.3c0.7-1.4,1.3-3,1.6-4.8c0.3-1.8,0.4-3.6,0.3-5.5c-0.1-1.8-0.5-3.6-1-5.2c-0.5-1.6-1.3-3-2.3-4
	c0.6-0.2,1.3-0.5,2.1-0.9c0.8-0.4,1.6-0.9,2.5-1.5c0.4-0.3,0.9-0.6,1.3-0.9c0.2,1.6,0.5,2.9,1.1,4.1c0.7,1.4,1.6,2.5,2.8,3.2
	c1.2,0.8,2.6,1.2,4.2,1.3c1.6,0.1,3.3-0.2,5.2-0.9c1.4-0.5,2.6-1.1,3.7-1.9c1-0.8,2-1.7,2.8-2.8c0-0.1,0.1-0.1,0.1-0.2
	c0.1,0.4,0.3,0.9,0.5,1.3c0.7,1.4,1.6,2.5,2.8,3.2c1.2,0.8,2.6,1.2,4.2,1.3c1.6,0.1,3.3-0.2,5.2-0.9c1.4-0.5,2.6-1.1,3.7-1.9
	c1-0.8,2-1.7,2.8-2.8c0.8-1.1,1.6-2.4,2.3-3.8c0.7-1.4,1.4-3.1,2.1-4.9C289.1,286.6,289,286.1,288.7,285.7z"/>
</svg>
