<?xml version="1.0" encoding="iso-8859-1"?>
<!-- Generator: Adobe Illustrator 19.0.0, SVG Export Plug-In . SVG Version: 6.00 Build 0)  -->
<svg version="1.1" xmlns="http://www.w3.org/2000/svg" xmlns:xlink="http://www.w3.org/1999/xlink" x="0px" y="0px"
	 viewBox="1120 -260 3200 1080" style="enable-background:new 1120 -260 3200 1080;" xml:space="preserve">
<g id="Layer_2_1_">
</g>
<g id="Layer_1">
	<g id="Layer_2" style="display:none;">
		<rect id="XMLID_1_" x="760" y="-259.378" style="display:inline;fill:#037BFB;" width="3920" height="1080"/>
	</g>
	<g>
		
			<image style="overflow:visible;opacity:0.6;" width="3167" height="656" xlink:href="F8D8D8F6.png"  transform="matrix(1 0 0 1 1144 -21)">
		</image>
		<g>
			<g>
				<g>
					<path style="fill:#F6E8FD;stroke:#20043E;stroke-miterlimit:10;" d="M4230.505,456.904c0,35.266-12.521,65.308-37.552,90.125
						c-25.041,24.817-54.97,37.225-89.798,37.225v-69.226c16.103,0,29.715-5.653,40.818-16.98
						c11.102-11.317,16.653-25.032,16.653-41.144v-84.247c0-36.134,13.49-67.043,40.49-92.738c-27-24.817-40.49-55.726-40.49-92.737
						v-71.839c0-16.102-5.552-29.817-16.653-41.144c-11.103-11.316-24.715-16.98-40.818-16.98v-69.226
						c34.828,0,64.757,12.408,89.798,37.225c25.032,24.817,37.552,54.859,37.552,90.125v71.839c0,16.112,5.552,29.827,16.653,41.144
						c11.103,11.327,24.706,16.98,40.818,16.98v69.226c-16.112,0-29.715,5.663-40.818,16.981
						c-11.102,11.327-16.653,25.041-16.653,41.144V456.904z"/>
				</g>
				<g>
					<g>
						<path style="fill:#E5085D;stroke:#20043E;stroke-miterlimit:10;" d="M1574.584,327.134c0,43.879-12.924,81.362-38.772,112.441
							c-25.848,31.086-57.26,46.622-94.221,46.622V433.34c24.734,0,45.716-10.3,62.953-30.914
							c17.23-20.607,25.848-45.704,25.848-75.293V79.811h44.192V327.134z"/>
						<path style="fill:#E5085D;stroke:#20043E;stroke-miterlimit:10;" d="M1642.745,214.691
							c25.985-31.079,57.324-46.622,94.012-46.622c36.688,0,68.021,15.543,94.012,46.622
							c25.985,31.087,38.981,68.562,38.981,112.443c0,8.313-0.697,17.123-2.085,26.427h-216.791
							c5.003,23.272,15.426,42.304,31.268,57.094c15.842,14.794,34.043,22.187,54.614,22.187c25.848,0,47.384-11.133,64.62-33.407
							h53.781c-11.12,26.265-27.307,47.293-48.57,63.076c-21.262,15.793-44.544,23.687-69.832,23.687
							c-36.688,0-68.027-15.536-94.012-46.622c-25.992-31.079-38.981-68.562-38.981-112.441
							C1603.764,283.253,1616.753,245.778,1642.745,214.691z M1650.875,300.704h171.765c-4.729-23.263-15.08-42.383-31.06-57.342
							c-15.986-14.959-34.258-22.439-54.823-22.439c-20.572,0-38.844,7.48-54.823,22.439
							C1665.948,258.322,1655.597,277.441,1650.875,300.704z"/>
						<path style="fill:#E5085D;stroke:#20043E;stroke-miterlimit:10;" d="M1932.081,214.691
							c25.985-31.079,57.324-46.622,94.012-46.622c36.688,0,68.021,15.543,94.013,46.622
							c25.985,31.087,38.981,68.562,38.981,112.443v125.653c0,43.879-12.996,81.355-38.981,112.443
							c-25.991,31.077-57.324,46.622-94.013,46.622c-28.076,0-53.507-9.646-76.294-28.922
							c-22.793-19.282-38.915-44.214-48.361-74.793h49.195c7.778,15.286,18.344,27.503,31.685,36.649
							c13.341,9.139,27.932,13.711,43.775,13.711c24.455,0,45.371-10.307,62.745-30.914c17.367-20.617,26.057-45.539,26.057-74.796
							c0-0.996-0.072-2.244-0.208-3.739c-0.143-1.497-0.209-2.571-0.209-3.242c-25.294,26.926-54.758,40.39-88.384,40.39
							c-36.688,0-68.027-15.536-94.012-46.622c-25.992-31.079-38.981-68.562-38.981-112.441
							C1893.101,283.253,1906.09,245.778,1932.081,214.691z M2088.838,252.089c-17.373-20.772-38.29-31.165-62.745-31.165
							c-24.46,0-45.377,10.393-62.744,31.165c-17.373,20.779-26.057,45.795-26.057,75.045c0,29.254,8.683,54.186,26.057,74.793
							c17.367,20.617,38.284,30.914,62.744,30.914c24.455,0,45.371-10.297,62.745-30.914c17.367-20.607,26.057-45.539,26.057-74.793
							C2114.895,297.884,2106.205,272.868,2088.838,252.089z"/>
						<path style="fill:#E5085D;stroke:#20043E;stroke-miterlimit:10;" d="M2448.419,327.134v176.515l-44.192-26.926v-30.917
							c-25.574,26.926-55.175,40.39-88.801,40.39c-36.688,0-68.027-15.536-94.012-46.622
							c-25.991-31.079-38.981-68.562-38.981-112.441c0-43.881,12.99-81.355,38.981-112.443
							c25.985-31.079,57.325-46.622,94.012-46.622c36.688,0,68.021,15.543,94.012,46.622
							C2435.424,245.778,2448.419,283.253,2448.419,327.134z M2378.171,252.338c-17.373-20.608-38.29-30.915-62.744-30.915
							c-24.461,0-45.378,10.307-62.745,30.915c-17.373,20.614-26.056,45.546-26.056,74.795c0,29.254,8.684,54.271,26.056,75.043
							c17.367,20.779,38.284,31.164,62.745,31.164c24.454,0,45.371-10.385,62.744-31.164c17.367-20.772,26.057-45.789,26.057-75.043
							C2404.227,297.884,2395.538,272.953,2378.171,252.338z"/>
						<path style="fill:#E5085D;stroke:#20043E;stroke-miterlimit:10;" d="M2491.77,291.729c0-33.906,10.143-62.99,30.434-87.259
							c20.285-24.262,44.746-36.401,73.375-36.401c28.349,0,52.667,12.139,72.958,36.401c20.286,24.269,30.434,53.353,30.434,87.259
							v194.468h-44.609V291.729c0-19.274-5.771-35.816-17.302-49.613c-11.536-13.79-25.366-20.693-41.482-20.693
							c-16.123,0-30.018,6.903-41.691,20.693c-11.673,13.797-17.51,30.339-17.51,49.613v194.468l-44.609,26.427V291.729z"/>
						<path style="fill:#E5085D;stroke:#20043E;stroke-miterlimit:10;" d="M2994.139,327.134v176.515l-44.192-26.926v-30.917
							c-25.574,26.926-55.175,40.39-88.801,40.39c-36.688,0-68.028-15.536-94.013-46.622
							c-25.991-31.079-38.981-68.562-38.981-112.441c0-43.881,12.99-81.355,38.981-112.443
							c25.985-31.079,57.325-46.622,94.013-46.622s68.021,15.543,94.012,46.622C2981.144,245.778,2994.139,283.253,2994.139,327.134
							z M2923.891,252.338c-17.373-20.608-38.291-30.915-62.744-30.915c-24.461,0-45.378,10.307-62.745,30.915
							c-17.373,20.614-26.057,45.546-26.057,74.795c0,29.254,8.684,54.271,26.057,75.043c17.366,20.779,38.284,31.164,62.745,31.164
							c24.454,0,45.371-10.385,62.744-31.164c17.366-20.772,26.056-45.789,26.056-75.043
							C2949.947,297.884,2941.257,272.953,2923.891,252.338z"/>
						<path style="fill:#E5085D;stroke:#20043E;stroke-miterlimit:10;" d="M3044.582,379.988V222.42h-32.935v-52.855h32.935V79.811
							l44.609,26.428v63.326h34.603v52.855h-34.603v157.567c0,14.632,4.306,27.176,12.924,37.648
							c8.612,10.469,19.034,15.705,31.268,15.705h14.175v52.856h-14.175c-24.461,0-45.378-10.387-62.744-31.166
							C3053.265,434.261,3044.582,409.244,3044.582,379.988z"/>
						<path style="fill:#E5085D;stroke:#20043E;stroke-miterlimit:10;" d="M3184.654,486.197V79.811l44.191,26.428v84.268
							c17.785-14.959,37.522-22.439,59.201-22.439c28.349,0,52.667,12.139,72.959,36.401c20.284,24.269,30.434,53.353,30.434,87.259
							v194.468h-44.61V291.729c0-19.274-5.771-35.816-17.301-49.613c-11.536-13.79-25.366-20.693-41.482-20.693
							c-16.122,0-30.018,6.903-41.691,20.693c-11.673,13.797-17.51,30.339-17.51,49.613v194.468H3184.654z"/>
					</g>
					<g>
						<path style="fill:#E5085D;stroke:#20043E;stroke-miterlimit:10;" d="M3477.503,86.527h132.575
							c28.624,0,53.084,12.053,73.376,36.151c20.285,24.106,30.434,53.275,30.434,87.509c0,33.908-10.148,63.077-30.434,87.51
							c-20.292,24.432-44.752,36.649-73.376,36.649h-88.383v158.566l-44.192,26.427V86.527z M3521.695,139.382v141.612h88.383
							c16.397,0,30.435-6.982,42.108-20.943c11.674-13.962,17.51-30.58,17.51-49.864c0-19.61-5.836-36.314-17.51-50.112
							c-11.673-13.79-25.711-20.693-42.108-20.693H3521.695z"/>
						<path style="fill:#E5085D;stroke:#20043E;stroke-miterlimit:10;" d="M3952.354,86.527h46.693l-114.231,406.386h-25.848
							L3744.734,86.527h46.694l80.462,286.215L3952.354,86.527z"/>
					</g>
				</g>
				<g>
					<path style="fill:#F6E8FD;stroke:#20043E;stroke-miterlimit:10;" d="M1210.134,115.343c0-35.266,12.521-65.308,37.552-90.125
						c25.041-24.817,54.97-37.225,89.798-37.225V57.22c-16.103,0-29.715,5.653-40.818,16.98
						c-11.102,11.317-16.653,25.032-16.653,41.144v84.247c0,36.134-13.49,67.043-40.49,92.738c27,24.817,40.49,55.726,40.49,92.737
						v71.839c0,16.102,5.552,29.817,16.653,41.144c11.103,11.316,24.715,16.98,40.818,16.98v69.226
						c-34.828,0-64.757-12.408-89.798-37.225c-25.031-24.817-37.552-54.859-37.552-90.125v-71.839
						c0-16.112-5.552-29.827-16.653-41.144c-11.103-11.327-24.705-16.98-40.818-16.98v-69.226c16.112,0,29.715-5.663,40.818-16.981
						c11.102-11.327,16.653-25.041,16.653-41.144V115.343z"/>
				</g>
			</g>
		</g>
	</g>
</g>
</svg>
